<?xml version="1.0" standalone="no"?>
<!DOCTYPE svg PUBLIC "-//W3C//DTD SVG 20010904//EN"
 "http://www.w3.org/TR/2001/REC-SVG-20010904/DTD/svg10.dtd">
<svg version="1.0" xmlns="http://www.w3.org/2000/svg"
 width="16.000000pt" height="16.000000pt" viewBox="0 0 16.000000 16.000000"
 preserveAspectRatio="xMidYMid meet">
<metadata>
Created by potrace 1.11, written by Peter Selinger 2001-2013
</metadata>
<g transform="translate(0.000000,16.000000) scale(0.016495,-0.016495)"
fill="#000000" stroke="none">
<path d="M0 485 l0 -485 485 0 485 0 0 485 0 485 -485 0 -485 0 0 -485z m781
333 c39 -44 62 -136 54 -207 -9 -82 -19 -93 -50 -56 -14 17 -28 40 -31 53 -4
12 -11 22 -16 22 -6 0 -8 11 -5 25 2 14 2 24 0 21 -8 -8 -53 42 -53 58 0 33
46 116 63 116 6 0 24 -14 38 -32z m91 -20 c-9 -9 -15 -9 -24 0 -9 9 -7 12 12
12 19 0 21 -3 12 -12z m66 -170 c-1 -127 -3 -145 -7 -83 -6 80 -2 245 5 245 2
0 3 -73 2 -162z m-830 12 c2 -5 10 -10 17 -10 7 0 37 -24 66 -52 37 -38 48
-54 37 -56 -23 -4 -32 -32 -10 -32 29 0 42 -32 31 -80 -19 -85 -35 -93 -89
-43 -14 13 -33 31 -44 41 -59 55 -106 172 -92 228 6 24 10 26 44 20 20 -3 38
-10 40 -16z m626 -106 c10 -26 7 -34 -13 -34 -11 0 -21 -9 -25 -22 -6 -21 -7
-22 -17 -5 -6 10 -7 31 -4 47 5 23 12 30 30 30 12 0 26 -7 29 -16z m-268 -81
c18 -24 17 -30 -5 -36 -13 -3 -22 -17 -26 -41 -8 -42 -27 -47 -43 -11 -17 36
-15 48 9 79 24 30 46 33 65 9z m174 -51 c0 -10 5 -23 12 -30 17 -17 75 -15 82
3 8 22 26 18 26 -6 0 -11 4 -17 10 -14 5 3 19 -3 31 -14 19 -17 20 -26 14 -82
-4 -35 -17 -83 -28 -109 -23 -49 -24 -54 -26 -87 -1 -23 -4 -23 -120 -23
l-119 0 -17 45 c-24 60 -14 175 15 175 4 0 10 -10 14 -22 3 -13 19 -39 35 -58
28 -32 30 -33 31 -12 0 21 20 33 20 12 0 -16 40 -12 46 5 8 21 24 19 25 -2 0
-10 6 8 13 40 7 33 19 63 27 68 11 7 10 9 -5 9 -11 0 -34 -11 -52 -25 -36 -28
-79 -32 -107 -11 -17 13 -17 17 -3 60 20 59 44 96 62 96 8 0 14 -8 14 -18z
m297 -299 c-2 -38 -3 -7 -3 67 0 74 1 105 3 68 2 -38 2 -98 0 -135z m-760 5
c-2 -29 -3 -8 -3 47 0 55 1 79 3 53 2 -26 2 -71 0 -100z"/>
<path d="M665 160 c-3 -5 -1 -10 4 -10 6 0 11 5 11 10 0 6 -2 10 -4 10 -3 0
-8 -4 -11 -10z"/>
<path d="M633 103 c9 -2 23 -2 30 0 6 3 -1 5 -18 5 -16 0 -22 -2 -12 -5z"/>
</g>
</svg>
